<svg width="107" height="32" viewBox="0 0 107 32" fill="none" xmlns="http://www.w3.org/2000/svg">
<rect width="107" height="32" fill="#F5F5F5"/>
<mask id="path-1-outside-1_0_1" maskUnits="userSpaceOnUse" x="-1" y="-1" width="109" height="34" fill="black">
<rect fill="white" x="-1" y="-1" width="109" height="34"/>
<path d="M17.1605 9.25C17.0999 8.69697 16.9711 8.20833 16.7741 7.78409C16.5848 7.35227 16.3234 6.98864 15.9901 6.69318C15.6567 6.39015 15.2514 6.15909 14.7741 6C14.2969 5.84091 13.7438 5.76136 13.1151 5.76136C11.9257 5.76136 10.812 6.05682 9.77415 6.64773C8.74384 7.23864 7.86506 8.09848 7.13778 9.22727C6.41051 10.3485 5.9143 11.7197 5.64915 13.3409C5.37642 14.9621 5.37642 16.3409 5.64915 17.4773C5.92945 18.6136 6.45597 19.4811 7.22869 20.0795C8.009 20.6705 9.01278 20.9659 10.2401 20.9659C11.3537 20.9659 12.3537 20.7689 13.2401 20.375C14.1264 19.9735 14.8499 19.4091 15.4105 18.6818C15.9787 17.9545 16.3423 17.0947 16.5014 16.1023L17.4787 16.25H11.4901L12.1037 12.5455H21.8423L21.3423 15.4773C21.0166 17.5227 20.3007 19.2803 19.1946 20.75C18.0885 22.2197 16.7098 23.3485 15.0582 24.1364C13.4143 24.9242 11.6113 25.3182 9.64915 25.3182C7.46733 25.3182 5.63021 24.8371 4.13778 23.875C2.65294 22.9053 1.59612 21.5303 0.96733 19.75C0.346117 17.9621 0.236269 15.8409 0.637784 13.3864C0.94839 11.5 1.50142 9.81818 2.29688 8.34091C3.09991 6.85606 4.08097 5.59848 5.24006 4.56818C6.39915 3.53788 7.68324 2.75379 9.09233 2.21591C10.509 1.67803 11.9825 1.40909 13.5128 1.40909C14.831 1.40909 16.0241 1.60227 17.0923 1.98864C18.1681 2.36742 19.0885 2.9053 19.8537 3.60227C20.6264 4.29924 21.2098 5.12879 21.6037 6.09091C22.0052 7.04545 22.1908 8.09848 22.1605 9.25H17.1605ZM24.4616 25L27.3707 7.54545H32.2116L29.3026 25H24.4616ZM30.2912 5.27273C29.5715 5.27273 28.9768 5.03409 28.5071 4.55682C28.045 4.07197 27.8556 3.49621 27.9389 2.82954C28.0223 2.14773 28.348 1.57197 28.9162 1.10227C29.4844 0.624999 30.1283 0.386362 30.848 0.386362C31.5677 0.386362 32.1548 0.624999 32.6094 1.10227C33.0639 1.57197 33.2533 2.14773 33.1776 2.82954C33.1018 3.49621 32.7798 4.07197 32.2116 4.55682C31.651 5.03409 31.0109 5.27273 30.2912 5.27273ZM39.9531 31.9091C38.3774 31.9091 37.063 31.6932 36.0099 31.2614C34.9645 30.8371 34.169 30.2576 33.6236 29.5227C33.0857 28.7879 32.7902 27.9621 32.7372 27.0455L37.3281 26.4432C37.4115 26.7992 37.5705 27.1288 37.8054 27.4318C38.0478 27.7348 38.3925 27.9773 38.8395 28.1591C39.294 28.3409 39.8812 28.4318 40.6009 28.4318C41.6539 28.4318 42.5705 28.1742 43.3509 27.6591C44.1312 27.1515 44.6122 26.2992 44.794 25.1023L45.3168 21.9091H45.1122C44.8243 22.3939 44.4304 22.8523 43.9304 23.2841C43.438 23.7159 42.8357 24.0682 42.1236 24.3409C41.419 24.6136 40.6046 24.75 39.6804 24.75C38.3622 24.75 37.2183 24.447 36.2486 23.8409C35.2865 23.2273 34.5895 22.2917 34.1577 21.0341C33.7334 19.7689 33.6804 18.1705 33.9986 16.2386C34.3319 14.2614 34.9304 12.6098 35.794 11.2841C36.6577 9.95833 37.6804 8.96591 38.8622 8.30682C40.044 7.64773 41.2751 7.31818 42.5554 7.31818C43.5327 7.31818 44.3205 7.48485 44.919 7.81818C45.5251 8.14394 45.991 8.55303 46.3168 9.04545C46.6425 9.5303 46.8736 10.0076 47.0099 10.4773H47.2031L47.6804 7.54545H52.4872L49.5554 25.1705C49.3205 26.6629 48.7562 27.9053 47.8622 28.8977C46.9759 29.8977 45.8509 30.6477 44.4872 31.1477C43.1236 31.6553 41.6122 31.9091 39.9531 31.9091ZM41.7713 21.1136C42.544 21.1136 43.2372 20.9205 43.8509 20.5341C44.4721 20.1402 44.991 19.5795 45.4077 18.8523C45.8243 18.1174 46.116 17.2386 46.2827 16.2159C46.4493 15.1932 46.4455 14.3068 46.2713 13.5568C46.1046 12.7992 45.7789 12.2121 45.294 11.7955C44.8168 11.3788 44.188 11.1705 43.4077 11.1705C42.6046 11.1705 41.9001 11.3864 41.294 11.8182C40.688 12.2424 40.1842 12.8333 39.7827 13.5909C39.3887 14.3485 39.1122 15.2235 38.9531 16.2159C38.7865 17.2235 38.7789 18.0947 38.9304 18.8295C39.0895 19.5568 39.4039 20.1212 39.8736 20.5227C40.3433 20.9167 40.9759 21.1136 41.7713 21.1136ZM60.2031 31.9091C58.6274 31.9091 57.313 31.6932 56.2599 31.2614C55.2145 30.8371 54.419 30.2576 53.8736 29.5227C53.3357 28.7879 53.0402 27.9621 52.9872 27.0455L57.5781 26.4432C57.6615 26.7992 57.8205 27.1288 58.0554 27.4318C58.2978 27.7348 58.6425 27.9773 59.0895 28.1591C59.544 28.3409 60.1312 28.4318 60.8509 28.4318C61.9039 28.4318 62.8205 28.1742 63.6009 27.6591C64.3812 27.1515 64.8622 26.2992 65.044 25.1023L65.5668 21.9091H65.3622C65.0743 22.3939 64.6804 22.8523 64.1804 23.2841C63.688 23.7159 63.0857 24.0682 62.3736 24.3409C61.669 24.6136 60.8546 24.75 59.9304 24.75C58.6122 24.75 57.4683 24.447 56.4986 23.8409C55.5365 23.2273 54.8395 22.2917 54.4077 21.0341C53.9834 19.7689 53.9304 18.1705 54.2486 16.2386C54.5819 14.2614 55.1804 12.6098 56.044 11.2841C56.9077 9.95833 57.9304 8.96591 59.1122 8.30682C60.294 7.64773 61.5251 7.31818 62.8054 7.31818C63.7827 7.31818 64.5705 7.48485 65.169 7.81818C65.7751 8.14394 66.241 8.55303 66.5668 9.04545C66.8925 9.5303 67.1236 10.0076 67.2599 10.4773H67.4531L67.9304 7.54545H72.7372L69.8054 25.1705C69.5705 26.6629 69.0062 27.9053 68.1122 28.8977C67.2259 29.8977 66.1009 30.6477 64.7372 31.1477C63.3736 31.6553 61.8622 31.9091 60.2031 31.9091ZM62.0213 21.1136C62.794 21.1136 63.4872 20.9205 64.1009 20.5341C64.7221 20.1402 65.241 19.5795 65.6577 18.8523C66.0743 18.1174 66.366 17.2386 66.5327 16.2159C66.6993 15.1932 66.6955 14.3068 66.5213 13.5568C66.3546 12.7992 66.0289 12.2121 65.544 11.7955C65.0668 11.3788 64.438 11.1705 63.6577 11.1705C62.8546 11.1705 62.1501 11.3864 61.544 11.8182C60.938 12.2424 60.4342 12.8333 60.0327 13.5909C59.6387 14.3485 59.3622 15.2235 59.2031 16.2159C59.0365 17.2235 59.0289 18.0947 59.1804 18.8295C59.3395 19.5568 59.6539 20.1212 60.1236 20.5227C60.5933 20.9167 61.2259 21.1136 62.0213 21.1136ZM81.5895 25.3409C79.8016 25.3409 78.3205 24.9773 77.1463 24.25C75.9721 23.5152 75.1463 22.4773 74.669 21.1364C74.1993 19.7879 74.1198 18.1932 74.4304 16.3523C74.7334 14.5568 75.3433 12.9811 76.2599 11.625C77.1842 10.2689 78.3433 9.21212 79.7372 8.45454C81.1312 7.69697 82.6842 7.31818 84.3963 7.31818C85.5478 7.31818 86.5895 7.50379 87.5213 7.875C88.4607 8.23864 89.241 8.79167 89.8622 9.53409C90.4834 10.2689 90.9077 11.1894 91.1349 12.2955C91.3698 13.4015 91.366 14.697 91.1236 16.1818L90.9077 17.5114H76.1804L76.6463 14.5114H86.8281C86.9418 13.8144 86.8963 13.197 86.6918 12.6591C86.4872 12.1212 86.1463 11.7008 85.669 11.3977C85.1918 11.0871 84.6046 10.9318 83.9077 10.9318C83.1955 10.9318 82.5289 11.1061 81.9077 11.4545C81.2865 11.803 80.7637 12.2614 80.3395 12.8295C79.9228 13.3902 79.6539 14 79.5327 14.6591L78.9986 17.6364C78.8471 18.553 78.8774 19.3144 79.0895 19.9205C79.3092 20.5265 79.688 20.9811 80.2259 21.2841C80.7637 21.5795 81.4455 21.7273 82.2713 21.7273C82.8092 21.7273 83.313 21.6515 83.7827 21.5C84.2599 21.3485 84.6842 21.125 85.0554 20.8295C85.4266 20.5265 85.7296 20.1515 85.9645 19.7045L90.3849 20C89.9759 21.0758 89.3546 22.0152 88.5213 22.8182C87.688 23.6136 86.6842 24.2348 85.5099 24.6818C84.3433 25.1212 83.0365 25.3409 81.5895 25.3409ZM92.8366 25L95.7457 7.54545H100.439L99.9276 10.5909H100.109C100.609 9.50758 101.28 8.68939 102.121 8.13636C102.969 7.57576 103.882 7.29545 104.859 7.29545C105.102 7.29545 105.356 7.31061 105.621 7.34091C105.893 7.36364 106.136 7.40151 106.348 7.45454L105.621 11.7614C105.409 11.6856 105.106 11.625 104.712 11.5795C104.325 11.5265 103.958 11.5 103.609 11.5C102.905 11.5 102.25 11.6553 101.643 11.9659C101.037 12.2689 100.526 12.6932 100.109 13.2386C99.7003 13.7841 99.4313 14.4129 99.3026 15.125L97.6776 25H92.8366Z"/>
</mask>
<path d="M17.1605 9.25C17.0999 8.69697 16.9711 8.20833 16.7741 7.78409C16.5848 7.35227 16.3234 6.98864 15.9901 6.69318C15.6567 6.39015 15.2514 6.15909 14.7741 6C14.2969 5.84091 13.7438 5.76136 13.1151 5.76136C11.9257 5.76136 10.812 6.05682 9.77415 6.64773C8.74384 7.23864 7.86506 8.09848 7.13778 9.22727C6.41051 10.3485 5.9143 11.7197 5.64915 13.3409C5.37642 14.9621 5.37642 16.3409 5.64915 17.4773C5.92945 18.6136 6.45597 19.4811 7.22869 20.0795C8.009 20.6705 9.01278 20.9659 10.2401 20.9659C11.3537 20.9659 12.3537 20.7689 13.2401 20.375C14.1264 19.9735 14.8499 19.4091 15.4105 18.6818C15.9787 17.9545 16.3423 17.0947 16.5014 16.1023L17.4787 16.25H11.4901L12.1037 12.5455H21.8423L21.3423 15.4773C21.0166 17.5227 20.3007 19.2803 19.1946 20.75C18.0885 22.2197 16.7098 23.3485 15.0582 24.1364C13.4143 24.9242 11.6113 25.3182 9.64915 25.3182C7.46733 25.3182 5.63021 24.8371 4.13778 23.875C2.65294 22.9053 1.59612 21.5303 0.96733 19.75C0.346117 17.9621 0.236269 15.8409 0.637784 13.3864C0.94839 11.5 1.50142 9.81818 2.29688 8.34091C3.09991 6.85606 4.08097 5.59848 5.24006 4.56818C6.39915 3.53788 7.68324 2.75379 9.09233 2.21591C10.509 1.67803 11.9825 1.40909 13.5128 1.40909C14.831 1.40909 16.0241 1.60227 17.0923 1.98864C18.1681 2.36742 19.0885 2.9053 19.8537 3.60227C20.6264 4.29924 21.2098 5.12879 21.6037 6.09091C22.0052 7.04545 22.1908 8.09848 22.1605 9.25H17.1605ZM24.4616 25L27.3707 7.54545H32.2116L29.3026 25H24.4616ZM30.2912 5.27273C29.5715 5.27273 28.9768 5.03409 28.5071 4.55682C28.045 4.07197 27.8556 3.49621 27.9389 2.82954C28.0223 2.14773 28.348 1.57197 28.9162 1.10227C29.4844 0.624999 30.1283 0.386362 30.848 0.386362C31.5677 0.386362 32.1548 0.624999 32.6094 1.10227C33.0639 1.57197 33.2533 2.14773 33.1776 2.82954C33.1018 3.49621 32.7798 4.07197 32.2116 4.55682C31.651 5.03409 31.0109 5.27273 30.2912 5.27273ZM39.9531 31.9091C38.3774 31.9091 37.063 31.6932 36.0099 31.2614C34.9645 30.8371 34.169 30.2576 33.6236 29.5227C33.0857 28.7879 32.7902 27.9621 32.7372 27.0455L37.3281 26.4432C37.4115 26.7992 37.5705 27.1288 37.8054 27.4318C38.0478 27.7348 38.3925 27.9773 38.8395 28.1591C39.294 28.3409 39.8812 28.4318 40.6009 28.4318C41.6539 28.4318 42.5705 28.1742 43.3509 27.6591C44.1312 27.1515 44.6122 26.2992 44.794 25.1023L45.3168 21.9091H45.1122C44.8243 22.3939 44.4304 22.8523 43.9304 23.2841C43.438 23.7159 42.8357 24.0682 42.1236 24.3409C41.419 24.6136 40.6046 24.75 39.6804 24.75C38.3622 24.75 37.2183 24.447 36.2486 23.8409C35.2865 23.2273 34.5895 22.2917 34.1577 21.0341C33.7334 19.7689 33.6804 18.1705 33.9986 16.2386C34.3319 14.2614 34.9304 12.6098 35.794 11.2841C36.6577 9.95833 37.6804 8.96591 38.8622 8.30682C40.044 7.64773 41.2751 7.31818 42.5554 7.31818C43.5327 7.31818 44.3205 7.48485 44.919 7.81818C45.5251 8.14394 45.991 8.55303 46.3168 9.04545C46.6425 9.5303 46.8736 10.0076 47.0099 10.4773H47.2031L47.6804 7.54545H52.4872L49.5554 25.1705C49.3205 26.6629 48.7562 27.9053 47.8622 28.8977C46.9759 29.8977 45.8509 30.6477 44.4872 31.1477C43.1236 31.6553 41.6122 31.9091 39.9531 31.9091ZM41.7713 21.1136C42.544 21.1136 43.2372 20.9205 43.8509 20.5341C44.4721 20.1402 44.991 19.5795 45.4077 18.8523C45.8243 18.1174 46.116 17.2386 46.2827 16.2159C46.4493 15.1932 46.4455 14.3068 46.2713 13.5568C46.1046 12.7992 45.7789 12.2121 45.294 11.7955C44.8168 11.3788 44.188 11.1705 43.4077 11.1705C42.6046 11.1705 41.9001 11.3864 41.294 11.8182C40.688 12.2424 40.1842 12.8333 39.7827 13.5909C39.3887 14.3485 39.1122 15.2235 38.9531 16.2159C38.7865 17.2235 38.7789 18.0947 38.9304 18.8295C39.0895 19.5568 39.4039 20.1212 39.8736 20.5227C40.3433 20.9167 40.9759 21.1136 41.7713 21.1136ZM60.2031 31.9091C58.6274 31.9091 57.313 31.6932 56.2599 31.2614C55.2145 30.8371 54.419 30.2576 53.8736 29.5227C53.3357 28.7879 53.0402 27.9621 52.9872 27.0455L57.5781 26.4432C57.6615 26.7992 57.8205 27.1288 58.0554 27.4318C58.2978 27.7348 58.6425 27.9773 59.0895 28.1591C59.544 28.3409 60.1312 28.4318 60.8509 28.4318C61.9039 28.4318 62.8205 28.1742 63.6009 27.6591C64.3812 27.1515 64.8622 26.2992 65.044 25.1023L65.5668 21.9091H65.3622C65.0743 22.3939 64.6804 22.8523 64.1804 23.2841C63.688 23.7159 63.0857 24.0682 62.3736 24.3409C61.669 24.6136 60.8546 24.75 59.9304 24.75C58.6122 24.75 57.4683 24.447 56.4986 23.8409C55.5365 23.2273 54.8395 22.2917 54.4077 21.0341C53.9834 19.7689 53.9304 18.1705 54.2486 16.2386C54.5819 14.2614 55.1804 12.6098 56.044 11.2841C56.9077 9.95833 57.9304 8.96591 59.1122 8.30682C60.294 7.64773 61.5251 7.31818 62.8054 7.31818C63.7827 7.31818 64.5705 7.48485 65.169 7.81818C65.7751 8.14394 66.241 8.55303 66.5668 9.04545C66.8925 9.5303 67.1236 10.0076 67.2599 10.4773H67.4531L67.9304 7.54545H72.7372L69.8054 25.1705C69.5705 26.6629 69.0062 27.9053 68.1122 28.8977C67.2259 29.8977 66.1009 30.6477 64.7372 31.1477C63.3736 31.6553 61.8622 31.9091 60.2031 31.9091ZM62.0213 21.1136C62.794 21.1136 63.4872 20.9205 64.1009 20.5341C64.7221 20.1402 65.241 19.5795 65.6577 18.8523C66.0743 18.1174 66.366 17.2386 66.5327 16.2159C66.6993 15.1932 66.6955 14.3068 66.5213 13.5568C66.3546 12.7992 66.0289 12.2121 65.544 11.7955C65.0668 11.3788 64.438 11.1705 63.6577 11.1705C62.8546 11.1705 62.1501 11.3864 61.544 11.8182C60.938 12.2424 60.4342 12.8333 60.0327 13.5909C59.6387 14.3485 59.3622 15.2235 59.2031 16.2159C59.0365 17.2235 59.0289 18.0947 59.1804 18.8295C59.3395 19.5568 59.6539 20.1212 60.1236 20.5227C60.5933 20.9167 61.2259 21.1136 62.0213 21.1136ZM81.5895 25.3409C79.8016 25.3409 78.3205 24.9773 77.1463 24.25C75.9721 23.5152 75.1463 22.4773 74.669 21.1364C74.1993 19.7879 74.1198 18.1932 74.4304 16.3523C74.7334 14.5568 75.3433 12.9811 76.2599 11.625C77.1842 10.2689 78.3433 9.21212 79.7372 8.45454C81.1312 7.69697 82.6842 7.31818 84.3963 7.31818C85.5478 7.31818 86.5895 7.50379 87.5213 7.875C88.4607 8.23864 89.241 8.79167 89.8622 9.53409C90.4834 10.2689 90.9077 11.1894 91.1349 12.2955C91.3698 13.4015 91.366 14.697 91.1236 16.1818L90.9077 17.5114H76.1804L76.6463 14.5114H86.8281C86.9418 13.8144 86.8963 13.197 86.6918 12.6591C86.4872 12.1212 86.1463 11.7008 85.669 11.3977C85.1918 11.0871 84.6046 10.9318 83.9077 10.9318C83.1955 10.9318 82.5289 11.1061 81.9077 11.4545C81.2865 11.803 80.7637 12.2614 80.3395 12.8295C79.9228 13.3902 79.6539 14 79.5327 14.6591L78.9986 17.6364C78.8471 18.553 78.8774 19.3144 79.0895 19.9205C79.3092 20.5265 79.688 20.9811 80.2259 21.2841C80.7637 21.5795 81.4455 21.7273 82.2713 21.7273C82.8092 21.7273 83.313 21.6515 83.7827 21.5C84.2599 21.3485 84.6842 21.125 85.0554 20.8295C85.4266 20.5265 85.7296 20.1515 85.9645 19.7045L90.3849 20C89.9759 21.0758 89.3546 22.0152 88.5213 22.8182C87.688 23.6136 86.6842 24.2348 85.5099 24.6818C84.3433 25.1212 83.0365 25.3409 81.5895 25.3409ZM92.8366 25L95.7457 7.54545H100.439L99.9276 10.5909H100.109C100.609 9.50758 101.28 8.68939 102.121 8.13636C102.969 7.57576 103.882 7.29545 104.859 7.29545C105.102 7.29545 105.356 7.31061 105.621 7.34091C105.893 7.36364 106.136 7.40151 106.348 7.45454L105.621 11.7614C105.409 11.6856 105.106 11.625 104.712 11.5795C104.325 11.5265 103.958 11.5 103.609 11.5C102.905 11.5 102.25 11.6553 101.643 11.9659C101.037 12.2689 100.526 12.6932 100.109 13.2386C99.7003 13.7841 99.4313 14.4129 99.3026 15.125L97.6776 25H92.8366Z" fill="black"/>
<path d="M17.1605 9.25L16.1665 9.35894L16.2641 10.25H17.1605V9.25ZM16.7741 7.78409L15.8584 8.18575L15.8626 8.19552L15.8671 8.2052L16.7741 7.78409ZM15.9901 6.69318L15.3173 7.43318L15.3267 7.44153L15.9901 6.69318ZM14.7741 6L15.0904 5.05132L15.0904 5.05132L14.7741 6ZM9.77415 6.64773L9.27937 5.7787L9.27664 5.78027L9.77415 6.64773ZM7.13778 9.22727L7.97675 9.77147L7.97841 9.76888L7.13778 9.22727ZM5.64915 13.3409L6.6353 13.5068L6.63604 13.5023L5.64915 13.3409ZM5.64915 17.4773L4.67674 17.7107L4.67825 17.7168L5.64915 17.4773ZM7.22869 20.0795L6.61633 20.8702L6.62498 20.8768L7.22869 20.0795ZM13.2401 20.375L13.6462 21.2888L13.6527 21.2859L13.2401 20.375ZM15.4105 18.6818L14.6225 18.0662L14.6185 18.0713L15.4105 18.6818ZM16.5014 16.1023L16.6509 15.1135L15.6709 14.9654L15.514 15.944L16.5014 16.1023ZM17.4787 16.25V17.25L17.6282 15.2612L17.4787 16.25ZM11.4901 16.25L10.5035 16.0866L10.3108 17.25H11.4901V16.25ZM12.1037 12.5455V11.5455H11.2557L11.1171 12.382L12.1037 12.5455ZM21.8423 12.5455L22.8281 12.7136L23.0273 11.5455H21.8423V12.5455ZM21.3423 15.4773L20.3565 15.3091L20.3548 15.32L21.3423 15.4773ZM19.1946 20.75L19.9936 21.3513L19.9936 21.3513L19.1946 20.75ZM15.0582 24.1364L14.6277 23.2338L14.626 23.2346L15.0582 24.1364ZM4.13778 23.875L3.59099 24.7123L3.59595 24.7155L4.13778 23.875ZM0.96733 19.75L0.0227124 20.0782L0.0244133 20.083L0.96733 19.75ZM0.637784 13.3864L-0.34893 13.2239L-0.349099 13.2249L0.637784 13.3864ZM2.29688 8.34091L1.41727 7.8652L1.4164 7.86681L2.29688 8.34091ZM5.24006 4.56818L5.90442 5.31559L5.90442 5.31559L5.24006 4.56818ZM9.09233 2.21591L8.73737 1.28102L8.73571 1.28166L9.09233 2.21591ZM17.0923 1.98864L16.7522 2.92905L16.7602 2.93187L17.0923 1.98864ZM19.8537 3.60227L19.1803 4.34156L19.1839 4.34484L19.8537 3.60227ZM21.6037 6.09091L20.6782 6.46984L20.6819 6.47864L21.6037 6.09091ZM22.1605 9.25V10.25H23.1345L23.1602 9.27631L22.1605 9.25ZM18.1546 9.14106C18.0843 8.49984 17.9317 7.90251 17.6812 7.36298L15.8671 8.2052C16.0106 8.51415 16.1155 8.8941 16.1665 9.35894L18.1546 9.14106ZM17.6899 7.38243C17.4459 6.82607 17.1012 6.34181 16.6534 5.94484L15.3267 7.44153C15.5455 7.63546 15.7236 7.87847 15.8584 8.18575L17.6899 7.38243ZM16.6627 5.95324C16.215 5.5462 15.6842 5.24927 15.0904 5.05132L14.4579 6.94868C14.8186 7.06891 15.0985 7.2341 15.3174 7.43312L16.6627 5.95324ZM15.0904 5.05132C14.4893 4.85097 13.8256 4.76136 13.1151 4.76136V6.76136C13.6621 6.76136 14.1044 6.83085 14.4579 6.94868L15.0904 5.05132ZM13.1151 4.76136C11.7514 4.76136 10.4674 5.10233 9.27938 5.7787L10.2689 7.51675C11.1567 7.01131 12.0999 6.76136 13.1151 6.76136V4.76136ZM9.27664 5.78027C8.09032 6.46065 7.09966 7.44011 6.29716 8.68566L7.97841 9.76888C8.63046 8.75686 9.39737 8.01662 10.2717 7.51518L9.27664 5.78027ZM6.29882 8.68308C5.48115 9.94365 4.94475 11.4523 4.66226 13.1795L6.63604 13.5023C6.88385 11.9871 7.33987 10.7533 7.97675 9.77146L6.29882 8.68308ZM4.663 13.175C4.37639 14.8788 4.36263 16.4018 4.67676 17.7106L6.62154 17.2439C6.39021 16.2801 6.37645 15.0455 6.63529 13.5068L4.663 13.175ZM4.67825 17.7168C5.00149 19.0272 5.63208 20.1078 6.61636 20.8701L7.84102 19.2889C7.27986 18.8543 6.85741 18.2001 6.62005 17.2378L4.67825 17.7168ZM6.62498 20.8768C7.61905 21.6295 8.851 21.9659 10.2401 21.9659V19.9659C9.17457 19.9659 8.39894 19.7114 7.8324 19.2823L6.62498 20.8768ZM10.2401 21.9659C11.473 21.9659 12.6144 21.7474 13.6462 21.2888L12.8339 19.4612C12.093 19.7905 11.2344 19.9659 10.2401 19.9659V21.9659ZM13.6527 21.2859C14.679 20.821 15.536 20.157 16.2025 19.2923L14.6185 18.0713C14.1638 18.6612 13.5738 19.126 12.8274 19.4641L13.6527 21.2859ZM16.1985 19.2975C16.8799 18.4254 17.3054 17.4046 17.4888 16.2606L15.514 15.944C15.3792 16.7848 15.0775 17.4837 14.6225 18.0662L16.1985 19.2975ZM16.352 17.091L17.3292 17.2388L17.6282 15.2612L16.6509 15.1135L16.352 17.091ZM17.4787 15.25H11.4901V17.25H17.4787V15.25ZM12.4766 16.4134L13.0903 12.7089L11.1171 12.382L10.5035 16.0866L12.4766 16.4134ZM12.1037 13.5455H21.8423V11.5455H12.1037V13.5455ZM20.8566 12.3773L20.3566 15.3092L22.3281 15.6454L22.8281 12.7136L20.8566 12.3773ZM20.3548 15.32C20.0514 17.2248 19.3917 18.8251 18.3956 20.1487L19.9936 21.3513C21.2096 19.7355 21.9817 17.8206 22.3299 15.6345L20.3548 15.32ZM18.3956 20.1487C17.3858 21.4905 16.1331 22.5156 14.6277 23.2338L15.4888 25.0389C17.2864 24.1814 18.7913 22.9489 19.9936 21.3513L18.3956 20.1487ZM14.626 23.2346C13.1271 23.953 11.4733 24.3182 9.64915 24.3182V26.3182C11.7492 26.3182 13.7015 25.8955 15.4904 25.0381L14.626 23.2346ZM9.64915 24.3182C7.61539 24.3182 5.97704 23.8709 4.67962 23.0345L3.59595 24.7155C5.28337 25.8033 7.31927 26.3182 9.64915 26.3182V24.3182ZM4.68457 23.0377C3.39583 22.1961 2.47097 21.0046 1.91025 19.417L0.0244133 20.083C0.721268 22.0561 1.91004 23.6145 3.591 24.7123L4.68457 23.0377ZM1.91193 19.4218C1.3598 17.8327 1.24186 15.888 1.62467 13.5478L-0.349099 13.2249C-0.769319 15.7938 -0.667563 18.0915 0.0227247 20.0782L1.91193 19.4218ZM1.6245 13.5488C1.91962 11.7565 2.44102 10.1825 3.17735 8.81501L1.4164 7.86681C0.561817 9.4539 -0.0228365 11.2435 -0.348929 13.2239L1.6245 13.5488ZM3.17648 8.81661C3.92903 7.4251 4.83973 6.26198 5.90442 5.31559L4.57569 3.82077C3.3222 4.93499 2.27078 6.28702 1.41727 7.8652L3.17648 8.81661ZM5.90442 5.31559C6.97568 4.36336 8.1561 3.64366 9.44895 3.15016L8.73571 1.28166C7.21038 1.86391 5.82262 2.71239 4.57569 3.82077L5.90442 5.31559ZM9.44729 3.15079C10.7494 2.6564 12.1025 2.40909 13.5128 2.40909V0.40909C11.8624 0.40909 10.2686 0.699662 8.73737 1.28102L9.44729 3.15079ZM13.5128 2.40909C14.7333 2.40909 15.809 2.58787 16.7522 2.92901L17.4325 1.04826C16.2393 0.616676 14.9287 0.40909 13.5128 0.40909V2.40909ZM16.7602 2.93187C17.7226 3.27075 18.5238 3.74352 19.1803 4.34155L20.5271 2.86299C19.6533 2.06709 18.6135 1.4641 17.4245 1.0454L16.7602 2.93187ZM19.1839 4.34484C19.8453 4.94141 20.3412 5.6467 20.6783 6.46982L22.5291 5.71199C22.0783 4.61087 21.4075 3.65708 20.5235 2.8597L19.1839 4.34484ZM20.6819 6.47864C21.0225 7.28824 21.1878 8.19811 21.1609 9.22369L23.1602 9.27631C23.1938 7.99886 22.9879 6.80267 22.5255 5.70318L20.6819 6.47864ZM22.1605 8.25H17.1605V10.25H22.1605V8.25ZM24.4616 25L23.4753 24.8356L23.2812 26H24.4616V25ZM27.3707 7.54545V6.54545H26.5236L26.3843 7.38106L27.3707 7.54545ZM32.2116 7.54545L33.198 7.70985L33.3921 6.54545H32.2116V7.54545ZM29.3026 25V26H30.1497L30.289 25.1644L29.3026 25ZM28.5071 4.55682L27.7832 5.24676L27.7888 5.25255L27.7944 5.25825L28.5071 4.55682ZM27.9389 2.82954L28.9312 2.95358L28.9315 2.95086L27.9389 2.82954ZM28.9162 1.10227L29.5534 1.87304L29.5594 1.86798L28.9162 1.10227ZM32.6094 1.10227L31.8852 1.79195L31.8908 1.79769L32.6094 1.10227ZM33.1776 2.82954L34.1712 2.94245L34.1714 2.93998L33.1776 2.82954ZM32.2116 4.55682L32.8599 5.31825L32.8608 5.3175L32.2116 4.55682ZM25.448 25.1644L28.3571 7.70985L26.3843 7.38106L23.4753 24.8356L25.448 25.1644ZM27.3707 8.54545H32.2116V6.54545H27.3707V8.54545ZM31.2253 7.38106L28.3162 24.8356L30.289 25.1644L33.198 7.70985L31.2253 7.38106ZM29.3026 24H24.4616V26H29.3026V24ZM30.2912 4.27273C29.8173 4.27273 29.4865 4.12638 29.2198 3.85539L27.7944 5.25825C28.4671 5.9418 29.3257 6.27273 30.2912 6.27273V4.27273ZM29.231 3.86688C28.9767 3.60009 28.885 3.32345 28.9312 2.95358L26.9466 2.70551C26.8262 3.66897 27.1133 4.54384 27.7832 5.24676L29.231 3.86688ZM28.9315 2.95086C28.9814 2.54272 29.1665 2.19278 29.5533 1.87301L28.279 0.33153C27.5295 0.951157 27.0631 1.75273 26.9463 2.70822L28.9315 2.95086ZM29.5594 1.86798C29.9535 1.53692 30.3714 1.38636 30.848 1.38636V-0.613638C29.8852 -0.613638 29.0152 -0.286919 28.273 0.336568L29.5594 1.86798ZM30.848 1.38636C31.322 1.38636 31.6379 1.53218 31.8852 1.79193L33.3335 0.412617C32.6718 -0.282186 31.8135 -0.613638 30.848 -0.613638V1.38636ZM31.8908 1.79769C32.1265 2.04132 32.2284 2.31665 32.1837 2.71911L34.1714 2.93998C34.2782 1.9788 34.0013 1.10262 33.328 0.406851L31.8908 1.79769ZM32.184 2.71663C32.1401 3.10225 31.9616 3.45558 31.5625 3.79613L32.8608 5.3175C33.5981 4.68835 34.0635 3.89017 34.1712 2.94245L32.184 2.71663ZM31.5634 3.79539C31.1791 4.12254 30.7674 4.27273 30.2912 4.27273V6.27273C31.2544 6.27273 32.123 5.94564 32.8599 5.31825L31.5634 3.79539ZM36.0099 31.2614L36.3894 30.3361L36.386 30.3348L36.0099 31.2614ZM33.6236 29.5227L32.8166 30.1134L32.8206 30.1187L33.6236 29.5227ZM32.7372 27.0455L32.6071 26.054L31.6852 26.1749L31.7389 27.1032L32.7372 27.0455ZM37.3281 26.4432L38.3018 26.2153L38.0955 25.3339L37.1981 25.4517L37.3281 26.4432ZM37.8054 27.4318L37.015 28.0444L37.0197 28.0505L37.0245 28.0565L37.8054 27.4318ZM38.8395 28.1591L38.4627 29.0854L38.4681 29.0876L38.8395 28.1591ZM43.3509 27.6591L42.8056 26.8208L42.7999 26.8246L43.3509 27.6591ZM44.794 25.1023L43.8071 24.9407L43.8054 24.9521L44.794 25.1023ZM45.3168 21.9091L46.3036 22.0706L46.4938 20.9091H45.3168V21.9091ZM45.1122 21.9091V20.9091H44.543L44.2524 21.3986L45.1122 21.9091ZM43.9304 23.2841L43.2768 22.5272L43.2711 22.5322L43.9304 23.2841ZM42.1236 24.3409L41.7659 23.407L41.7626 23.4083L42.1236 24.3409ZM36.2486 23.8409L35.7108 24.6841L35.7186 24.6889L36.2486 23.8409ZM34.1577 21.0341L33.2095 21.352L33.2119 21.3589L34.1577 21.0341ZM33.9986 16.2386L33.0125 16.0724L33.0119 16.0761L33.9986 16.2386ZM35.794 11.2841L34.9561 10.7383L34.9561 10.7383L35.794 11.2841ZM38.8622 8.30682L38.3751 7.43345L38.3751 7.43345L38.8622 8.30682ZM44.919 7.81818L44.4325 8.69182L44.439 8.69546L44.4456 8.69901L44.919 7.81818ZM46.3168 9.04545L45.4827 9.5972L45.4867 9.60314L46.3168 9.04545ZM47.0099 10.4773L46.0496 10.7561L46.259 11.4773H47.0099V10.4773ZM47.2031 10.4773V11.4773H48.0535L48.1901 10.6379L47.2031 10.4773ZM47.6804 7.54545V6.54545H46.83L46.6934 7.38478L47.6804 7.54545ZM52.4872 7.54545L53.4737 7.70954L53.6673 6.54545H52.4872V7.54545ZM49.5554 25.1705L48.5689 25.0064L48.5676 25.015L49.5554 25.1705ZM47.8622 28.8977L47.1192 28.2284L47.1139 28.2344L47.8622 28.8977ZM44.4872 31.1477L44.143 30.2088L44.1384 30.2105L44.4872 31.1477ZM43.8509 20.5341L44.3837 21.3803L44.3864 21.3786L43.8509 20.5341ZM45.4077 18.8523L46.2754 19.3494L46.2776 19.3455L45.4077 18.8523ZM46.2713 13.5568L45.2946 13.7717L45.2972 13.7831L46.2713 13.5568ZM45.294 11.7955L44.6364 12.5488L44.6423 12.5539L45.294 11.7955ZM41.294 11.8182L41.8675 12.6374L41.8743 12.6326L41.294 11.8182ZM39.7827 13.5909L38.8991 13.1226L38.8955 13.1296L39.7827 13.5909ZM38.9531 16.2159L39.9397 16.3791L39.9405 16.3742L38.9531 16.2159ZM38.9304 18.8295L37.9509 19.0315L37.9535 19.0432L38.9304 18.8295ZM39.8736 20.5227L39.2238 21.2829L39.231 21.2889L39.8736 20.5227ZM39.9531 30.9091C38.4609 30.9091 37.2853 30.7035 36.3894 30.3361L35.6305 32.1866C36.8407 32.6828 38.2939 32.9091 39.9531 32.9091V30.9091ZM36.386 30.3348C35.471 29.9635 34.8398 29.4835 34.4265 28.9267L32.8206 30.1187C33.4982 31.0317 34.458 31.7108 35.6339 32.188L36.386 30.3348ZM34.4305 28.9321C34.0074 28.3541 33.7775 27.7137 33.7355 26.9877L31.7389 27.1032C31.8029 28.2105 32.164 29.2217 32.8166 30.1134L34.4305 28.9321ZM32.8673 28.037L37.4582 27.4347L37.1981 25.4517L32.6071 26.054L32.8673 28.037ZM36.3544 26.6711C36.4721 27.1738 36.6965 27.6334 37.015 28.0444L38.5958 26.8192C38.4446 26.6242 38.3508 26.4247 38.3018 26.2153L36.3544 26.6711ZM37.0245 28.0565C37.3967 28.5217 37.8955 28.8547 38.4627 29.0854L39.2163 27.2328C38.8895 27.0999 38.699 26.948 38.5863 26.8071L37.0245 28.0565ZM38.4681 29.0876C39.0825 29.3333 39.8084 29.4318 40.6009 29.4318V27.4318C39.9539 27.4318 39.5055 27.3485 39.2109 27.2306L38.4681 29.0876ZM40.6009 29.4318C41.8242 29.4318 42.9379 29.13 43.9018 28.4936L42.7999 26.8246C42.2032 27.2185 41.4835 27.4318 40.6009 27.4318V29.4318ZM43.8961 28.4973C44.9826 27.7906 45.5717 26.6415 45.7827 25.2524L43.8054 24.9521C43.6527 25.957 43.2797 26.5124 42.8056 26.8208L43.8961 28.4973ZM45.7809 25.2638L46.3036 22.0706L44.3299 21.7475L43.8072 24.9407L45.7809 25.2638ZM45.3168 20.9091H45.1122V22.9091H45.3168V20.9091ZM44.2524 21.3986C44.028 21.7764 43.7089 22.1541 43.2768 22.5273L44.584 24.0409C45.1519 23.5505 45.6206 23.0115 45.9721 22.4196L44.2524 21.3986ZM43.2711 22.5322C42.881 22.8743 42.3854 23.1698 41.7659 23.4071L42.4812 25.2748C43.286 24.9665 43.995 24.5575 44.5897 24.036L43.2711 22.5322ZM41.7626 23.4083C41.1957 23.6278 40.5079 23.75 39.6804 23.75V25.75C40.7014 25.75 41.6424 25.5995 42.4846 25.2735L41.7626 23.4083ZM39.6804 23.75C38.5204 23.75 37.5663 23.4852 36.7786 22.9929L35.7186 24.6889C36.8703 25.4087 38.204 25.75 39.6804 25.75V23.75ZM36.7863 22.9978C36.0455 22.5253 35.4745 21.7899 35.1035 20.7093L33.2119 21.3589C33.7045 22.7934 34.5275 23.9293 35.7108 24.684L36.7863 22.9978ZM35.1058 20.7162C34.752 19.661 34.6821 18.2418 34.9853 16.4012L33.0119 16.0761C32.6787 18.0991 32.7149 19.8769 33.2096 21.352L35.1058 20.7162ZM34.9847 16.4049C35.3011 14.5281 35.8604 13.0143 36.6319 11.8299L34.9561 10.7383C34.0004 12.2054 33.3628 13.9946 33.0125 16.0724L34.9847 16.4049ZM36.6319 11.8299C37.422 10.6171 38.3315 9.74779 39.3493 9.18018L38.3751 7.43345C37.0293 8.18402 35.8934 9.29953 34.9561 10.7383L36.6319 11.8299ZM39.3493 9.18018C40.391 8.59924 41.4554 8.31818 42.5554 8.31818V6.31818C41.0948 6.31818 39.6971 6.69621 38.3751 7.43345L39.3493 9.18018ZM42.5554 8.31818C43.4307 8.31818 44.0328 8.46924 44.4325 8.69182L45.4056 6.94455C44.6083 6.50046 43.6346 6.31818 42.5554 6.31818V8.31818ZM44.4456 8.69901C44.9303 8.95953 45.2622 9.26376 45.4827 9.59719L47.1508 8.49372C46.7198 7.8423 46.1199 7.32835 45.3925 6.93736L44.4456 8.69901ZM45.4867 9.60314C45.7657 10.0184 45.947 10.4026 46.0496 10.7561L47.9703 10.1985C47.8002 9.61256 47.5193 9.04216 47.1468 8.48776L45.4867 9.60314ZM47.0099 11.4773H47.2031V9.47727H47.0099V11.4773ZM48.1901 10.6379L48.6674 7.70613L46.6934 7.38478L46.2161 10.3166L48.1901 10.6379ZM47.6804 8.54545H52.4872V6.54545H47.6804V8.54545ZM51.5008 7.38136L48.569 25.0064L50.5418 25.3345L53.4737 7.70954L51.5008 7.38136ZM48.5676 25.015C48.3588 26.3419 47.867 27.3983 47.1192 28.2284L48.6052 29.567C49.6453 28.4123 50.2823 26.9838 50.5432 25.3259L48.5676 25.015ZM47.1139 28.2344C46.3467 29.0999 45.365 29.7608 44.143 30.2089L44.8315 32.0866C46.3367 31.5347 47.605 30.6955 48.6106 29.561L47.1139 28.2344ZM44.1384 30.2105C42.9008 30.6712 41.5096 30.9091 39.9531 30.9091V32.9091C41.7148 32.9091 43.3463 32.6394 44.8361 32.0849L44.1384 30.2105ZM41.7713 22.1136C42.7197 22.1136 43.5999 21.8738 44.3837 21.3803L43.318 19.6879C42.8746 19.9671 42.3684 20.1136 41.7713 20.1136V22.1136ZM44.3864 21.3786C45.163 20.8861 45.7892 20.1979 46.2754 19.3494L44.54 18.3552C44.1928 18.9612 43.7811 19.3942 43.3153 19.6896L44.3864 21.3786ZM46.2776 19.3455C46.7642 18.4873 47.0881 17.4907 47.2697 16.3768L45.2957 16.0551C45.1439 16.9865 44.8845 17.7476 44.5378 18.359L46.2776 19.3455ZM47.2697 16.3768C47.4505 15.2673 47.4574 14.2432 47.2454 13.3305L45.2972 13.7831C45.4337 14.3705 45.4482 15.1191 45.2957 16.0551L47.2697 16.3768ZM47.248 13.342C47.0449 12.4191 46.6276 11.623 45.9458 11.037L44.6423 12.5539C44.9302 12.8013 45.1644 13.1794 45.2947 13.7717L47.248 13.342ZM45.9517 11.0421C45.2527 10.4319 44.3715 10.1705 43.4077 10.1705V12.1705C44.0044 12.1705 44.3808 12.3257 44.6364 12.5488L45.9517 11.0421ZM43.4077 10.1705C42.414 10.1705 41.5028 10.4415 40.7138 11.0038L41.8743 12.6326C42.2973 12.3312 42.7953 12.1705 43.4077 12.1705V10.1705ZM40.7206 10.9989C39.9656 11.5274 39.3629 12.2474 38.8991 13.1226L40.6662 14.0592C41.0054 13.4192 41.4103 12.9574 41.8675 12.6374L40.7206 10.9989ZM38.8955 13.1296C38.4442 13.9973 38.1388 14.9777 37.9657 16.0576L39.9405 16.3742C40.0856 15.4693 40.3332 14.6997 40.6699 14.0523L38.8955 13.1296ZM37.9665 16.0527C37.7866 17.1405 37.7675 18.1416 37.951 19.0315L39.9098 18.6276C39.7903 18.0478 39.7863 17.3065 39.9397 16.3791L37.9665 16.0527ZM37.9535 19.0432C38.1494 19.9386 38.5566 20.7125 39.2238 21.2828L40.5234 19.7626C40.2511 19.5299 40.0296 19.175 39.9073 18.6158L37.9535 19.0432ZM39.231 21.2889C39.9286 21.874 40.8119 22.1136 41.7713 22.1136V20.1136C41.1398 20.1136 40.758 19.9593 40.5162 19.7565L39.231 21.2889ZM56.2599 31.2614L56.6394 30.3361L56.636 30.3348L56.2599 31.2614ZM53.8736 29.5227L53.0666 30.1134L53.0706 30.1187L53.8736 29.5227ZM52.9872 27.0455L52.8571 26.054L51.9352 26.1749L51.9889 27.1032L52.9872 27.0455ZM57.5781 26.4432L58.5518 26.2153L58.3455 25.3339L57.4481 25.4517L57.5781 26.4432ZM58.0554 27.4318L57.265 28.0444L57.2697 28.0505L57.2745 28.0565L58.0554 27.4318ZM59.0895 28.1591L58.7127 29.0854L58.7181 29.0876L59.0895 28.1591ZM63.6009 27.6591L63.0556 26.8208L63.0499 26.8246L63.6009 27.6591ZM65.044 25.1023L64.0571 24.9407L64.0554 24.9521L65.044 25.1023ZM65.5668 21.9091L66.5536 22.0706L66.7438 20.9091H65.5668V21.9091ZM65.3622 21.9091V20.9091H64.793L64.5024 21.3986L65.3622 21.9091ZM64.1804 23.2841L63.5268 22.5272L63.5211 22.5322L64.1804 23.2841ZM62.3736 24.3409L62.0159 23.407L62.0126 23.4083L62.3736 24.3409ZM56.4986 23.8409L55.9608 24.6841L55.9686 24.6889L56.4986 23.8409ZM54.4077 21.0341L53.4595 21.352L53.4619 21.3589L54.4077 21.0341ZM54.2486 16.2386L53.2625 16.0724L53.2619 16.0761L54.2486 16.2386ZM56.044 11.2841L55.2061 10.7383L55.2061 10.7383L56.044 11.2841ZM59.1122 8.30682L58.6251 7.43345L58.6251 7.43345L59.1122 8.30682ZM65.169 7.81818L64.6825 8.69182L64.689 8.69546L64.6956 8.69901L65.169 7.81818ZM66.5668 9.04545L65.7327 9.5972L65.7367 9.60314L66.5668 9.04545ZM67.2599 10.4773L66.2996 10.7561L66.509 11.4773H67.2599V10.4773ZM67.4531 10.4773V11.4773H68.3035L68.4401 10.6379L67.4531 10.4773ZM67.9304 7.54545V6.54545H67.08L66.9434 7.38478L67.9304 7.54545ZM72.7372 7.54545L73.7237 7.70954L73.9173 6.54545H72.7372V7.54545ZM69.8054 25.1705L68.8189 25.0064L68.8176 25.015L69.8054 25.1705ZM68.1122 28.8977L67.3692 28.2284L67.3639 28.2344L68.1122 28.8977ZM64.7372 31.1477L64.393 30.2088L64.3884 30.2105L64.7372 31.1477ZM64.1009 20.5341L64.6337 21.3803L64.6364 21.3786L64.1009 20.5341ZM65.6577 18.8523L66.5254 19.3494L66.5276 19.3455L65.6577 18.8523ZM66.5213 13.5568L65.5446 13.7717L65.5472 13.7831L66.5213 13.5568ZM65.544 11.7955L64.8864 12.5488L64.8923 12.5539L65.544 11.7955ZM61.544 11.8182L62.1175 12.6374L62.1243 12.6326L61.544 11.8182ZM60.0327 13.5909L59.1491 13.1226L59.1455 13.1296L60.0327 13.5909ZM59.2031 16.2159L60.1897 16.3791L60.1905 16.3742L59.2031 16.2159ZM59.1804 18.8295L58.2009 19.0315L58.2035 19.0432L59.1804 18.8295ZM60.1236 20.5227L59.4738 21.2829L59.481 21.2889L60.1236 20.5227ZM60.2031 30.9091C58.7109 30.9091 57.5353 30.7035 56.6394 30.3361L55.8805 32.1866C57.0907 32.6828 58.5439 32.9091 60.2031 32.9091V30.9091ZM56.636 30.3348C55.721 29.9635 55.0898 29.4835 54.6765 28.9267L53.0706 30.1187C53.7482 31.0317 54.708 31.7108 55.8839 32.188L56.636 30.3348ZM54.6805 28.9321C54.2574 28.3541 54.0275 27.7137 53.9855 26.9877L51.9889 27.1032C52.0529 28.2105 52.414 29.2217 53.0666 30.1134L54.6805 28.9321ZM53.1173 28.037L57.7082 27.4347L57.4481 25.4517L52.8571 26.054L53.1173 28.037ZM56.6044 26.6711C56.7221 27.1738 56.9465 27.6334 57.265 28.0444L58.8458 26.8192C58.6946 26.6242 58.6008 26.4247 58.5518 26.2153L56.6044 26.6711ZM57.2745 28.0565C57.6467 28.5217 58.1455 28.8547 58.7127 29.0854L59.4663 27.2328C59.1395 27.0999 58.949 26.948 58.8363 26.8071L57.2745 28.0565ZM58.7181 29.0876C59.3325 29.3333 60.0584 29.4318 60.8509 29.4318V27.4318C60.2039 27.4318 59.7555 27.3485 59.4609 27.2306L58.7181 29.0876ZM60.8509 29.4318C62.0742 29.4318 63.1879 29.13 64.1518 28.4936L63.0499 26.8246C62.4532 27.2185 61.7335 27.4318 60.8509 27.4318V29.4318ZM64.1461 28.4973C65.2326 27.7906 65.8217 26.6415 66.0327 25.2524L64.0554 24.9521C63.9027 25.957 63.5297 26.5124 63.0556 26.8208L64.1461 28.4973ZM66.0309 25.2638L66.5536 22.0706L64.5799 21.7475L64.0572 24.9407L66.0309 25.2638ZM65.5668 20.9091H65.3622V22.9091H65.5668V20.9091ZM64.5024 21.3986C64.278 21.7764 63.9589 22.1541 63.5268 22.5273L64.834 24.0409C65.4019 23.5505 65.8706 23.0115 66.2221 22.4196L64.5024 21.3986ZM63.5211 22.5322C63.131 22.8743 62.6354 23.1698 62.0159 23.4071L62.7312 25.2748C63.536 24.9665 64.245 24.5575 64.8397 24.036L63.5211 22.5322ZM62.0126 23.4083C61.4457 23.6278 60.7579 23.75 59.9304 23.75V25.75C60.9514 25.75 61.8924 25.5995 62.7346 25.2735L62.0126 23.4083ZM59.9304 23.75C58.7704 23.75 57.8163 23.4852 57.0286 22.9929L55.9686 24.6889C57.1203 25.4087 58.454 25.75 59.9304 25.75V23.75ZM57.0363 22.9978C56.2955 22.5253 55.7245 21.7899 55.3535 20.7093L53.4619 21.3589C53.9545 22.7934 54.7775 23.9293 55.9608 24.684L57.0363 22.9978ZM55.3558 20.7162C55.002 19.661 54.9321 18.2418 55.2353 16.4012L53.2619 16.0761C52.9287 18.0991 52.9649 19.8769 53.4596 21.352L55.3558 20.7162ZM55.2347 16.4049C55.5511 14.5281 56.1104 13.0143 56.8819 11.8299L55.2061 10.7383C54.2504 12.2054 53.6128 13.9946 53.2625 16.0724L55.2347 16.4049ZM56.8819 11.8299C57.672 10.6171 58.5815 9.74779 59.5993 9.18018L58.6251 7.43345C57.2793 8.18402 56.1434 9.29953 55.2061 10.7383L56.8819 11.8299ZM59.5993 9.18018C60.641 8.59924 61.7054 8.31818 62.8054 8.31818V6.31818C61.3448 6.31818 59.9471 6.69621 58.6251 7.43345L59.5993 9.18018ZM62.8054 8.31818C63.6807 8.31818 64.2828 8.46924 64.6825 8.69182L65.6556 6.94455C64.8583 6.50046 63.8846 6.31818 62.8054 6.31818V8.31818ZM64.6956 8.69901C65.1803 8.95953 65.5122 9.26376 65.7327 9.59719L67.4008 8.49372C66.9698 7.8423 66.3699 7.32835 65.6425 6.93736L64.6956 8.69901ZM65.7367 9.60314C66.0157 10.0184 66.197 10.4026 66.2996 10.7561L68.2203 10.1985C68.0502 9.61256 67.7693 9.04216 67.3968 8.48776L65.7367 9.60314ZM67.2599 11.4773H67.4531V9.47727H67.2599V11.4773ZM68.4401 10.6379L68.9174 7.70613L66.9434 7.38478L66.4661 10.3166L68.4401 10.6379ZM67.9304 8.54545H72.7372V6.54545H67.9304V8.54545ZM71.7508 7.38136L68.819 25.0064L70.7918 25.3345L73.7237 7.70954L71.7508 7.38136ZM68.8176 25.015C68.6088 26.3419 68.117 27.3983 67.3692 28.2284L68.8552 29.567C69.8953 28.4123 70.5323 26.9838 70.7932 25.3259L68.8176 25.015ZM67.3639 28.2344C66.5967 29.0999 65.615 29.7608 64.393 30.2089L65.0815 32.0866C66.5867 31.5347 67.855 30.6955 68.8606 29.561L67.3639 28.2344ZM64.3884 30.2105C63.1508 30.6712 61.7596 30.9091 60.2031 30.9091V32.9091C61.9648 32.9091 63.5963 32.6394 65.0861 32.0849L64.3884 30.2105ZM62.0213 22.1136C62.9697 22.1136 63.8499 21.8738 64.6337 21.3803L63.568 19.6879C63.1246 19.9671 62.6184 20.1136 62.0213 20.1136V22.1136ZM64.6364 21.3786C65.413 20.8861 66.0392 20.1979 66.5254 19.3494L64.79 18.3552C64.4428 18.9612 64.0311 19.3942 63.5653 19.6896L64.6364 21.3786ZM66.5276 19.3455C67.0142 18.4873 67.3381 17.4907 67.5197 16.3768L65.5457 16.0551C65.3939 16.9865 65.1345 17.7476 64.7878 18.359L66.5276 19.3455ZM67.5197 16.3768C67.7005 15.2673 67.7074 14.2432 67.4954 13.3305L65.5472 13.7831C65.6837 14.3705 65.6982 15.1191 65.5457 16.0551L67.5197 16.3768ZM67.498 13.342C67.2949 12.4191 66.8776 11.623 66.1958 11.037L64.8923 12.5539C65.1802 12.8013 65.4144 13.1794 65.5447 13.7717L67.498 13.342ZM66.2017 11.0421C65.5027 10.4319 64.6215 10.1705 63.6577 10.1705V12.1705C64.2544 12.1705 64.6308 12.3257 64.8864 12.5488L66.2017 11.0421ZM63.6577 10.1705C62.664 10.1705 61.7528 10.4415 60.9638 11.0038L62.1243 12.6326C62.5473 12.3312 63.0453 12.1705 63.6577 12.1705V10.1705ZM60.9706 10.9989C60.2156 11.5274 59.6129 12.2474 59.1491 13.1226L60.9162 14.0592C61.2554 13.4192 61.6603 12.9574 62.1175 12.6374L60.9706 10.9989ZM59.1455 13.1296C58.6942 13.9973 58.3888 14.9777 58.2157 16.0576L60.1905 16.3742C60.3356 15.4693 60.5832 14.6997 60.9199 14.0523L59.1455 13.1296ZM58.2165 16.0527C58.0366 17.1405 58.0175 18.1416 58.201 19.0315L60.1598 18.6276C60.0403 18.0478 60.0363 17.3065 60.1897 16.3791L58.2165 16.0527ZM58.2035 19.0432C58.3994 19.9386 58.8066 20.7125 59.4738 21.2828L60.7734 19.7626C60.5011 19.5299 60.2796 19.175 60.1573 18.6158L58.2035 19.0432ZM59.481 21.2889C60.1786 21.874 61.0619 22.1136 62.0213 22.1136V20.1136C61.3898 20.1136 61.008 19.9593 60.7662 19.7565L59.481 21.2889ZM77.1463 24.25L76.6158 25.0977L76.6198 25.1001L77.1463 24.25ZM74.669 21.1364L73.7247 21.4653L73.7269 21.4717L74.669 21.1364ZM74.4304 16.3523L73.4443 16.1858L73.4443 16.1859L74.4304 16.3523ZM76.2599 11.625L75.4336 11.0618L75.4315 11.065L76.2599 11.625ZM79.7372 8.45454L79.2597 7.57592L79.2597 7.57592L79.7372 8.45454ZM87.5213 7.875L87.1512 8.80404L87.1603 8.80757L87.5213 7.875ZM89.8622 9.53409L89.0953 10.1758L89.0985 10.1797L89.8622 9.53409ZM91.1349 12.2955L90.1554 12.4967L90.1568 12.5032L91.1349 12.2955ZM91.1236 16.1818L90.1366 16.0207L90.1365 16.0215L91.1236 16.1818ZM90.9077 17.5114V18.5114H91.7584L91.8947 17.6717L90.9077 17.5114ZM76.1804 17.5114L75.1922 17.3579L75.0131 18.5114H76.1804V17.5114ZM76.6463 14.5114V13.5114H75.7896L75.6582 14.3579L76.6463 14.5114ZM86.8281 14.5114V15.5114H87.6783L87.8151 14.6723L86.8281 14.5114ZM86.6918 12.6591L85.7571 13.0145L85.7571 13.0145L86.6918 12.6591ZM85.669 11.3977L85.1235 12.2359L85.133 12.2419L85.669 11.3977ZM81.9077 11.4545L82.3969 12.3267L82.3969 12.3267L81.9077 11.4545ZM80.3395 12.8295L79.5382 12.2313L79.5369 12.233L80.3395 12.8295ZM79.5327 14.6591L78.5492 14.4782L78.5484 14.4825L79.5327 14.6591ZM78.9986 17.6364L78.0142 17.4598L78.012 17.4733L78.9986 17.6364ZM79.0895 19.9205L78.1456 20.2508L78.1494 20.2613L79.0895 19.9205ZM80.2259 21.2841L79.735 22.1554L79.7444 22.1606L80.2259 21.2841ZM83.7827 21.5L83.4801 20.5469L83.4757 20.5483L83.7827 21.5ZM85.0554 20.8295L85.6782 21.612L85.6878 21.6042L85.0554 20.8295ZM85.9645 19.7045L86.0312 18.7068L85.3819 18.6634L85.0792 19.2394L85.9645 19.7045ZM90.3849 20L91.3196 20.3554L91.8 19.0923L90.4516 19.0022L90.3849 20ZM88.5213 22.8182L89.2118 23.5415L89.2152 23.5383L88.5213 22.8182ZM85.5099 24.6818L85.8624 25.6177L85.8657 25.6164L85.5099 24.6818ZM81.5895 24.3409C79.9338 24.3409 78.6487 24.0042 77.6729 23.3999L76.6198 25.1001C77.9924 25.9503 79.6694 26.3409 81.5895 26.3409V24.3409ZM77.6768 23.4023C76.6992 22.7905 76.0151 21.936 75.6111 20.801L73.7269 21.4717C74.2775 23.0186 75.245 24.2398 76.6158 25.0977L77.6768 23.4023ZM75.6134 20.8074C75.2135 19.6594 75.1255 18.243 75.4165 16.5186L73.4443 16.1859C73.1141 18.1433 73.1852 19.9164 73.7247 21.4653L75.6134 20.8074ZM75.4165 16.5187C75.6984 14.8483 76.2604 13.41 77.0884 12.185L75.4315 11.065C74.4262 12.5522 73.7685 14.2654 73.4443 16.1858L75.4165 16.5187ZM77.0863 12.1882C77.9242 10.9588 78.9654 10.0122 80.2147 9.33317L79.2597 7.57592C77.7212 8.41207 76.4442 9.57904 75.4336 11.0618L77.0863 12.1882ZM80.2147 9.33317C81.4506 8.66148 82.8374 8.31818 84.3963 8.31818V6.31818C82.531 6.31818 80.8117 6.73246 79.2597 7.57592L80.2147 9.33317ZM84.3963 8.31818C85.4396 8.31818 86.3532 8.48611 87.1512 8.804L87.8914 6.946C86.8257 6.52147 85.656 6.31818 84.3963 6.31818V8.31818ZM87.1603 8.80757C87.9486 9.11272 88.5871 9.56847 89.0953 10.1758L90.6292 8.89237C89.8949 8.01486 88.9728 7.36455 87.8823 6.94243L87.1603 8.80757ZM89.0985 10.1797C89.5944 10.7663 89.9559 11.526 90.1554 12.4967L92.1145 12.0942C91.8594 10.8528 91.3724 9.77159 90.6259 8.8885L89.0985 10.1797ZM90.1568 12.5032C90.3589 13.4551 90.3653 14.6201 90.1366 16.0207L92.1105 16.3429C92.3667 14.7738 92.3807 13.348 92.1131 12.0878L90.1568 12.5032ZM90.1365 16.0215L89.9206 17.3511L91.8947 17.6717L92.1107 16.3421L90.1365 16.0215ZM90.9077 16.5114H76.1804V18.5114H90.9077V16.5114ZM77.1686 17.6648L77.6345 14.6648L75.6582 14.3579L75.1922 17.3579L77.1686 17.6648ZM76.6463 15.5114H86.8281V13.5114H76.6463V15.5114ZM87.8151 14.6723C87.9507 13.8408 87.9063 13.0396 87.6265 12.3036L85.7571 13.0145C85.8863 13.3543 85.9329 13.788 85.8412 14.3504L87.8151 14.6723ZM87.6265 12.3036C87.3467 11.568 86.8679 10.9744 86.205 10.5535L85.133 12.2419C85.4247 12.4271 85.6277 12.6744 85.7571 13.0145L87.6265 12.3036ZM86.2145 10.5596C85.5418 10.1218 84.7547 9.93182 83.9077 9.93182V11.9318C84.4546 11.9318 84.8417 12.0524 85.1236 12.2359L86.2145 10.5596ZM83.9077 9.93182C83.0242 9.93182 82.189 10.1501 81.4184 10.5824L82.3969 12.3267C82.8687 12.062 83.3669 11.9318 83.9077 11.9318V9.93182ZM81.4184 10.5824C80.6758 10.999 80.0465 11.5504 79.5382 12.2313L81.1408 13.4278C81.4809 12.9723 81.8972 12.607 82.3969 12.3267L81.4184 10.5824ZM79.5369 12.233C79.0329 12.9112 78.6992 13.6621 78.5492 14.4782L80.5162 14.84C80.6085 14.3379 80.8128 13.8692 81.1421 13.4261L79.5369 12.233ZM78.5484 14.4825L78.0143 17.4598L79.9829 17.8129L80.517 14.8357L78.5484 14.4825ZM78.012 17.4733C77.8445 18.4863 77.8588 19.4314 78.1456 20.2508L80.0333 19.5901C79.8959 19.1974 79.8496 18.6197 79.9852 17.7994L78.012 17.4733ZM78.1494 20.2613C78.4466 21.0813 78.9789 21.7294 79.735 22.1553L80.7167 20.4128C80.397 20.2327 80.1717 19.9717 80.0296 19.5797L78.1494 20.2613ZM79.7444 22.1606C80.472 22.5602 81.3331 22.7273 82.2713 22.7273V20.7273C81.558 20.7273 81.0554 20.5988 80.7073 20.4076L79.7444 22.1606ZM82.2713 22.7273C82.9041 22.7273 83.5123 22.638 84.0897 22.4517L83.4757 20.5483C83.1137 20.6651 82.7143 20.7273 82.2713 20.7273V22.7273ZM84.0853 22.4531C84.6722 22.2668 85.2063 21.9875 85.6781 21.612L84.4327 20.0471C84.1621 20.2625 83.8476 20.4302 83.4801 20.5469L84.0853 22.4531ZM85.6878 21.6042C86.1688 21.2115 86.5557 20.7293 86.8497 20.1697L85.0792 19.2394C84.9036 19.5737 84.6844 19.8415 84.423 20.0549L85.6878 21.6042ZM85.8978 20.7023L90.3183 20.9978L90.4516 19.0022L86.0312 18.7068L85.8978 20.7023ZM89.4502 19.6446C89.0939 20.5817 88.5552 21.3968 87.8274 22.0981L89.2152 23.5383C90.1541 22.6335 90.8578 21.5698 91.3196 20.3554L89.4502 19.6446ZM87.8308 22.0948C87.1023 22.7902 86.2153 23.3433 85.1542 23.7472L85.8657 25.6164C87.1531 25.1264 88.2736 24.437 89.2118 23.5415L87.8308 22.0948ZM85.1575 23.746C84.12 24.1367 82.9351 24.3409 81.5895 24.3409V26.3409C83.1378 26.3409 84.5665 26.1057 85.8624 25.6176L85.1575 23.746ZM92.8366 25L91.8503 24.8356L91.6562 26H92.8366V25ZM95.7457 7.54545V6.54545H94.8986L94.7593 7.38106L95.7457 7.54545ZM100.439 7.54545L101.425 7.71105L101.621 6.54545H100.439V7.54545ZM99.9276 10.5909L98.9414 10.4253L98.7456 11.5909H99.9276V10.5909ZM100.109 10.5909V11.5909H100.749L101.017 11.01L100.109 10.5909ZM102.121 8.13636L102.67 8.97187L102.672 8.9707L102.121 8.13636ZM105.621 7.34091L105.507 8.33444L105.522 8.33618L105.538 8.33745L105.621 7.34091ZM106.348 7.45454L107.334 7.62105L107.488 6.70879L106.591 6.4844L106.348 7.45454ZM105.621 11.7614L105.284 12.7031L106.408 13.1044L106.607 11.9279L105.621 11.7614ZM104.712 11.5795L104.576 12.5703L104.586 12.5717L104.597 12.573L104.712 11.5795ZM101.643 11.9659L102.091 12.8604L102.1 12.8558L101.643 11.9659ZM100.109 13.2386L99.3147 12.6316L99.3094 12.6386L100.109 13.2386ZM99.3026 15.125L98.3185 14.947L98.3171 14.9548L98.3158 14.9626L99.3026 15.125ZM97.6776 25V26H98.5264L98.6643 25.1624L97.6776 25ZM93.823 25.1644L96.7321 7.70985L94.7593 7.38106L91.8503 24.8356L93.823 25.1644ZM95.7457 8.54545H100.439V6.54545H95.7457V8.54545ZM99.4527 7.37986L98.9414 10.4253L100.914 10.7565L101.425 7.71105L99.4527 7.37986ZM99.9276 11.5909H100.109V9.59091H99.9276V11.5909ZM101.017 11.01C101.454 10.0644 102.012 9.40459 102.67 8.97187L101.571 7.30086C100.547 7.97419 99.765 8.95077 99.2014 10.1719L101.017 11.01ZM102.672 8.9707C103.364 8.51351 104.086 8.29545 104.859 8.29545V6.29545C103.678 6.29545 102.574 6.638 101.569 7.30203L102.672 8.9707ZM104.859 8.29545C105.06 8.29545 105.276 8.30802 105.507 8.33444L105.734 6.34738C105.435 6.31319 105.143 6.29545 104.859 6.29545V8.29545ZM105.538 8.33745C105.769 8.35676 105.957 8.38752 106.105 8.42469L106.591 6.4844C106.315 6.41551 106.018 6.37051 105.704 6.34436L105.538 8.33745ZM105.362 7.28804L104.635 11.5949L106.607 11.9279L107.334 7.62105L105.362 7.28804ZM105.957 10.8196C105.639 10.706 105.248 10.6348 104.826 10.5861L104.597 12.573C104.963 12.6152 105.178 12.6652 105.284 12.7031L105.957 10.8196ZM104.848 10.5888C104.421 10.5303 104.008 10.5 103.609 10.5V12.5C103.907 12.5 104.229 12.5227 104.576 12.5703L104.848 10.5888ZM103.609 10.5C102.752 10.5 101.94 10.6905 101.187 11.076L102.1 12.8558C102.56 12.6201 103.058 12.5 103.609 12.5V10.5ZM101.196 11.0715C100.452 11.4435 99.8226 11.9668 99.3147 12.6316L100.904 13.8457C101.23 13.4196 101.623 13.0944 102.091 12.8603L101.196 11.0715ZM99.3094 12.6386C98.8012 13.3161 98.4732 14.0915 98.3185 14.947L100.287 15.303C100.389 14.7343 100.599 14.252 100.909 13.8386L99.3094 12.6386ZM98.3158 14.9626L96.6908 24.8376L98.6643 25.1624L100.289 15.2874L98.3158 14.9626ZM97.6776 24H92.8366V26H97.6776V24Z" fill="black" mask="url(#path-1-outside-1_0_1)"/>
</svg>
